<?xml version="1.0" encoding="UTF-8" standalone="no"?>
<!-- Created with Inkscape (http://www.inkscape.org/) -->

<svg
   xmlns:dc="http://purl.org/dc/elements/1.1/"
   xmlns:cc="http://creativecommons.org/ns#"
   xmlns:rdf="http://www.w3.org/1999/02/22-rdf-syntax-ns#"
   xmlns:svg="http://www.w3.org/2000/svg"
   xmlns="http://www.w3.org/2000/svg"
   version="1.1"
   width="100%"
   height="100%"
   viewBox="0 0 512 512"
   id="svg3108">
  <metadata
     id="metadata3156">
    <rdf:RDF>
      <cc:Work
         rdf:about="">
        <dc:format>image/svg+xml</dc:format>
        <dc:type
           rdf:resource="http://purl.org/dc/dcmitype/StillImage" />
        <dc:title></dc:title>
      </cc:Work>
    </rdf:RDF>
  </metadata>
  <defs
     id="defs3154" />
  <g
     transform="matrix(16.184785,-9.34429,9.34429,16.184785,-32096.072,-31639.69)"
     id="g3112">
    <path
       d="m 658.01149,2335.1274 c -1.80358,-1.0102 -3.47937,-1.18 -4.92512,-0.5458 l 1.01599,3.7917 c 1.11926,0.085 2.08794,0.5793 2.6196,1.6631 1.13922,-0.7428 2.10526,-2.0344 2.83211,-3.862 -0.52269,-0.4155 -1.03758,-0.7641 -1.54258,-1.047 z m -5.52815,-0.5715 -9.95077,2.6675 1.74656,6.5228 3.06455,-0.8199 c -0.0954,-2.0563 3.33126,-4.432 6.16139,-4.5618 l -1.02173,-3.8086 z m 7.41946,7.7031 c -0.9789,-0.5444 -1.92091,-0.8404 -2.80802,-0.8952 0.11868,1.2501 -0.47897,2.1942 -1.42925,2.8434 l 0.98968,3.6935 c 2.01053,-0.2269 3.6948,-1.7688 4.81335,-4.5813 -0.53101,-0.4222 -1.053,-0.7753 -1.56576,-1.0604 z m -5.12261,-2.7722 c -2.28893,-1.2196 -6.80193,1.4621 -6.25459,3.5059 0.67397,2.5154 8.46998,2.0319 7.39476,-1.9826 -0.2016,-0.7527 -0.61196,-1.2418 -1.14017,-1.5233 z m 0.37107,5.0259 c -2.55803,1.3259 -6.81089,0.9494 -7.66083,-0.961 l -3.04483,0.8158 1.74801,6.5237 9.95222,-2.6667 -0.99457,-3.7118 z m -12.71861,-5.4374 c -1.4071,-0.7137 -2.73467,-0.9232 -3.93518,-0.6385 l 1.68191,6.277 c 1.18309,-0.3538 2.23129,-1.1903 3.09483,-2.4977 l -0.84011,-3.14 -10e-4,-8e-4 z m -4.63872,0.1119 -5.9389,1.5913 -0.765,1.325 6.98422,-1.8702 -0.28032,-1.0461 z m 0.56064,2.0923 -8.03039,2.1505 -0.76584,1.3265 9.07654,-2.4308 -0.28031,-1.0462 z m 5.99401,4.9416 c -1.40767,-0.7146 -2.73553,-0.9241 -3.93662,-0.6393 l 1.68046,6.2761 c 1.1832,-0.3539 2.23202,-1.1918 3.09567,-2.4992 l -0.83951,-3.1376 z m -5.43483,-2.8501 -10.12125,2.712 -0.76584,1.3264 11.16741,-2.9923 -0.28032,-1.0461 z m 0.79405,2.9588 -10.91013,2.9246 1.32647,0.7659 9.86398,-2.6443 -0.28032,-1.0462 z m 0.56064,2.0924 -8.81927,2.3631 1.32648,0.7658 7.77311,-2.0828 -0.28032,-1.0461 z m 9.46169,6.9784 c -0.0457,-0.026 -0.0939,-0.036 -0.1436,-0.029 -0.0358,0.01 -0.0895,0.034 -0.16008,0.083 l -2.80916,1.9695 c -0.0686,0.048 -0.11351,0.09 -0.13329,0.1238 -0.0278,0.048 -0.0341,0.1034 -0.0173,0.1638 0.0167,0.06 0.0531,0.106 0.10642,0.1367 0.047,0.027 0.0938,0.036 0.14215,0.028 0.0371,-0.01 0.0916,-0.031 0.16214,-0.08 l 2.80649,-1.9749 c 0.0686,-0.048 0.1135,-0.09 0.13329,-0.1238 0.0279,-0.048 0.0344,-0.1021 0.0179,-0.1615 -0.0165,-0.059 -0.0517,-0.1051 -0.10497,-0.1359 z m -8.90106,-4.8861 -6.72694,1.8025 1.32648,0.7658 5.68078,-1.5222 -0.28032,-1.0461 z m 6.41207,4.1673 c -0.033,-0.019 -0.0963,-0.029 -0.18611,-0.032 l -2.48703,-0.04 1.27807,2.1339 c 0.0466,0.078 0.0881,0.1261 0.12234,0.1459 0.0521,0.03 0.10941,0.037 0.17185,0.02 0.0624,-0.017 0.10835,-0.054 0.13986,-0.1084 0.0249,-0.043 0.0363,-0.085 0.0315,-0.1247 -0.005,-0.04 -0.0301,-0.096 -0.0731,-0.1677 l -0.85955,-1.4308 1.66887,0.029 c 0.084,0 0.14554,-0.01 0.18262,-0.022 0.0371,-0.016 0.0665,-0.045 0.0914,-0.088 0.0315,-0.055 0.0406,-0.1133 0.024,-0.1753 -0.0166,-0.062 -0.0514,-0.1089 -0.10474,-0.1397 z m 3.04829,1.76 c -0.0533,-0.031 -0.11123,-0.038 -0.1733,-0.021 -0.0621,0.017 -0.10979,0.053 -0.1413,0.1076 -0.0249,0.043 -0.034,0.084 -0.0292,0.1241 0.005,0.04 0.0279,0.096 0.0708,0.1683 l 0.85955,1.4308 -1.66887,-0.029 c -0.084,0 -0.14326,0.01 -0.18033,0.021 -0.0371,0.016 -0.0688,0.046 -0.0937,0.089 -0.0322,0.056 -0.04,0.1155 -0.0234,0.1776 0.0166,0.062 0.0523,0.1074 0.10558,0.1382 0.033,0.019 0.0941,0.03 0.18466,0.031 l 2.48703,0.04 -1.27807,-2.1339 c -0.0473,-0.076 -0.0864,-0.1252 -0.11945,-0.1442 z"
       id="path3136"
       style="fill:#4a9ac6;fill-opacity:1;stroke:none" />
    <text
       x="-391.73715"
       y="403.10556"
       transform="matrix(0.04633982,0.02675431,-0.02675431,0.04633982,640.82818,2324.8856)"
       id="text6766"
       xml:space="preserve"
       style="font-size:40px;font-style:normal;font-variant:normal;font-weight:normal;font-stretch:normal;line-height:125%;letter-spacing:0px;word-spacing:0px;fill:#000000;fill-opacity:1;stroke:none;font-family:Arial Black;-inkscape-font-specification:Arial Black"><tspan
         x="-391.73715"
         y="403.10556"
         id="tspan6768" /></text>
  </g>
</svg>
